<svg width="4917pt" height="188pt"
 viewBox="0.00 0.00 4917.32 188.00" xmlns="http://www.w3.org/2000/svg" xmlns:xlink="http://www.w3.org/1999/xlink">
<g id="graph0" class="graph" transform="scale(1 1) rotate(0) translate(4 184)">
<title>example1</title>
<polygon fill="#ffffff" stroke="transparent" points="-4,4 -4,-184 4913.3238,-184 4913.3238,4 -4,4"/>
<!-- gui.GuiAbstractBody -->
<g id="node1" class="node">
<title>gui.GuiAbstractBody</title>
<ellipse fill="none" stroke="#000000" cx="93.9114" cy="-162" rx="93.823" ry="18"/>
<text text-anchor="middle" x="93.9114" y="-157.8" font-family="Times,serif" font-size="14.00" fill="#000000">gui.GuiAbstractBody</text>
</g>
<!-- java.awt.Graphics -->
<g id="node2" class="node">
<title>java.awt.Graphics</title>
<ellipse fill="none" stroke="#000000" cx="2451.9114" cy="-18" rx="80.9969" ry="18"/>
<text text-anchor="middle" x="2451.9114" y="-13.8" font-family="Times,serif" font-size="14.00" fill="#000000">java.awt.Graphics</text>
</g>
<!-- gui.GuiAbstractBody&#45;&gt;java.awt.Graphics -->
<g id="edge1" class="edge">
<title>gui.GuiAbstractBody&#45;&gt;java.awt.Graphics</title>
<path fill="none" stroke="#000000" d="M153.6974,-148.0223C245.8746,-127.164 428.5268,-88.575 585.9114,-72 936.0476,-35.1253 2035.9129,-21.9461 2360.7289,-18.8021"/>
<polygon fill="#000000" stroke="#000000" points="2361.0682,-22.2991 2371.0341,-18.7032 2361.001,-15.2994 2361.0682,-22.2991"/>
</g>
<!-- java.awt.Point -->
<g id="node3" class="node">
<title>java.awt.Point</title>
<ellipse fill="none" stroke="#000000" cx="2841.9114" cy="-18" rx="66.0704" ry="18"/>
<text text-anchor="middle" x="2841.9114" y="-13.8" font-family="Times,serif" font-size="14.00" fill="#000000">java.awt.Point</text>
</g>
<!-- gui.GuiAbstractBody&#45;&gt;java.awt.Point -->
<g id="edge2" class="edge">
<title>gui.GuiAbstractBody&#45;&gt;java.awt.Point</title>
<path fill="none" stroke="#000000" d="M159.9465,-149.1817C172.1965,-147.168 184.9121,-145.3194 196.9114,-144 1233.9879,-29.9667 1500.0481,-91.245 2541.9114,-36 2618.6251,-31.9322 2706.3298,-26.5896 2767.0085,-22.7839"/>
<polygon fill="#000000" stroke="#000000" points="2767.5001,-26.26 2777.2608,-22.1394 2767.0609,-19.2738 2767.5001,-26.26"/>
</g>
<!-- model.AbstractBody -->
<g id="node4" class="node">
<title>model.AbstractBody</title>
<ellipse fill="none" stroke="#000000" cx="2511.9114" cy="-90" rx="91.4542" ry="18"/>
<text text-anchor="middle" x="2511.9114" y="-85.8" font-family="Times,serif" font-size="14.00" fill="#000000">model.AbstractBody</text>
</g>
<!-- gui.GuiAbstractBody&#45;&gt;model.AbstractBody -->
<g id="edge3" class="edge">
<title>gui.GuiAbstractBody&#45;&gt;model.AbstractBody</title>
<path fill="none" stroke="#000000" d="M159.368,-149.0199C171.7902,-146.9948 184.7155,-145.1838 196.9114,-144 584.9475,-106.3337 1561.1864,-118.2514 1950.9114,-108 2112.2075,-103.7572 2299.5454,-97.4726 2411.7593,-93.5624"/>
<polygon fill="#000000" stroke="#000000" points="2412.1742,-97.0502 2422.046,-93.2033 2411.9299,-90.0544 2412.1742,-97.0502"/>
</g>
<!-- model.AbstractBody&#45;&gt;java.awt.Graphics -->
<g id="edge4" class="edge">
<title>model.AbstractBody&#45;&gt;java.awt.Graphics</title>
<path fill="none" stroke="#000000" d="M2497.08,-72.2022C2489.9405,-63.6348 2481.2456,-53.2009 2473.398,-43.7839"/>
<polygon fill="#000000" stroke="#000000" points="2475.8709,-41.2841 2466.7802,-35.8425 2470.4933,-45.7654 2475.8709,-41.2841"/>
</g>
<!-- model.AbstractBody&#45;&gt;java.awt.Point -->
<g id="edge5" class="edge">
<title>model.AbstractBody&#45;&gt;java.awt.Point</title>
<path fill="none" stroke="#000000" d="M2573.2085,-76.6261C2632.2356,-63.7475 2721.0396,-44.372 2780.2042,-31.4634"/>
<polygon fill="#000000" stroke="#000000" points="2781.1392,-34.8418 2790.1633,-29.2905 2779.647,-28.0027 2781.1392,-34.8418"/>
</g>
<!-- model.AbstractBody&#45;&gt;model.AbstractBody -->
<g id="edge6" class="edge">
<title>model.AbstractBody&#45;&gt;model.AbstractBody</title>
<path fill="none" stroke="#000000" d="M2573.1183,-103.3607C2599.0482,-104.3676 2621.1383,-99.9141 2621.1383,-90 2621.1383,-81.4026 2604.5262,-76.9117 2583.2038,-76.527"/>
<polygon fill="#000000" stroke="#000000" points="2583.0787,-73.0281 2573.1183,-76.6393 2583.1567,-80.0277 2583.0787,-73.0281"/>
</g>
<!-- controller.KeyActionsBody -->
<g id="node5" class="node">
<title>controller.KeyActionsBody</title>
<ellipse fill="none" stroke="#000000" cx="323.9114" cy="-162" rx="118.0806" ry="18"/>
<text text-anchor="middle" x="323.9114" y="-157.8" font-family="Times,serif" font-size="14.00" fill="#000000">controller.KeyActionsBody</text>
</g>
<!-- controller.KeyActionsBody&#45;&gt;java.awt.Graphics -->
<g id="edge7" class="edge">
<title>controller.KeyActionsBody&#45;&gt;java.awt.Graphics</title>
<path fill="none" stroke="#000000" d="M389.5257,-146.9854C484.3602,-126.0069 665.526,-88.6321 821.9114,-72 1123.8171,-39.8914 2063.7968,-23.6829 2360.921,-19.2679"/>
<polygon fill="#000000" stroke="#000000" points="2361.2702,-22.7633 2371.2173,-19.1158 2361.1667,-15.764 2361.2702,-22.7633"/>
</g>
<!-- controller.KeyActionsBody&#45;&gt;java.awt.Point -->
<g id="edge8" class="edge">
<title>controller.KeyActionsBody&#45;&gt;java.awt.Point</title>
<path fill="none" stroke="#000000" d="M405.7343,-148.9713C420.7275,-146.992 436.2638,-145.2096 450.9114,-144 533.986,-137.1395 1873.8511,-139.7829 1950.9114,-108 1972.4184,-99.1296 1967.5826,-81.2905 1988.9114,-72 1993.3561,-70.064 2559.5985,-35.2658 2766.9457,-22.5791"/>
<polygon fill="#000000" stroke="#000000" points="2767.3681,-26.0599 2777.1357,-21.9558 2766.9406,-19.073 2767.3681,-26.0599"/>
</g>
<!-- controller.KeyActionsBody&#45;&gt;model.AbstractBody -->
<g id="edge9" class="edge">
<title>controller.KeyActionsBody&#45;&gt;model.AbstractBody</title>
<path fill="none" stroke="#000000" d="M405.7337,-148.9641C420.727,-146.9855 436.2634,-145.2053 450.9114,-144 1132.3512,-87.9287 1305.4542,-127.7595 1988.9114,-108 2136.1235,-103.7439 2306.6031,-97.6606 2411.8581,-93.7706"/>
<polygon fill="#000000" stroke="#000000" points="2412.2891,-97.2572 2422.1527,-93.3895 2412.03,-90.262 2412.2891,-97.2572"/>
</g>
<!-- model.rockets.RocketSmall -->
<g id="node6" class="node">
<title>model.rockets.RocketSmall</title>
<ellipse fill="none" stroke="#000000" cx="577.9114" cy="-162" rx="117.5556" ry="18"/>
<text text-anchor="middle" x="577.9114" y="-157.8" font-family="Times,serif" font-size="14.00" fill="#000000">model.rockets.RocketSmall</text>
</g>
<!-- model.rockets.RocketSmall&#45;&gt;java.awt.Graphics -->
<g id="edge10" class="edge">
<title>model.rockets.RocketSmall&#45;&gt;java.awt.Graphics</title>
<path fill="none" stroke="#000000" d="M640.615,-146.6932C729.4983,-125.7232 897.5092,-88.7578 1042.9114,-72 1299.6689,-42.4083 2091.4927,-24.8938 2361.0025,-19.6662"/>
<polygon fill="#000000" stroke="#000000" points="2361.2071,-23.163 2371.1377,-19.4706 2361.072,-16.1643 2361.2071,-23.163"/>
</g>
<!-- model.rockets.RocketSmall&#45;&gt;java.awt.Point -->
<g id="edge11" class="edge">
<title>model.rockets.RocketSmall&#45;&gt;java.awt.Point</title>
<path fill="none" stroke="#000000" d="M659.7384,-149.0201C674.7311,-147.0358 690.2663,-145.2392 704.9114,-144 847.126,-131.9668 1857.0804,-162.6842 1988.9114,-108 2010.4005,-99.0862 2005.5962,-81.3218 2026.9114,-72 2035.3467,-68.311 2566.8904,-35.0427 2766.9055,-22.6363"/>
<polygon fill="#000000" stroke="#000000" points="2767.2691,-26.1206 2777.0333,-22.0084 2766.8358,-19.134 2767.2691,-26.1206"/>
</g>
<!-- model.rockets.RocketSmall&#45;&gt;model.AbstractBody -->
<g id="edge12" class="edge">
<title>model.rockets.RocketSmall&#45;&gt;model.AbstractBody</title>
<path fill="none" stroke="#000000" d="M659.7376,-149.0104C674.7304,-147.0271 690.2658,-145.2333 704.9114,-144 1290.6119,-94.6794 1439.442,-126.8999 2026.9114,-108 2160.1013,-103.7151 2313.8302,-97.8546 2411.8876,-94.0007"/>
<polygon fill="#000000" stroke="#000000" points="2412.231,-97.49 2422.0856,-93.5992 2411.9556,-90.4954 2412.231,-97.49"/>
</g>
<!-- controller.RocketLearnApp -->
<g id="node7" class="node">
<title>controller.RocketLearnApp</title>
<ellipse fill="none" stroke="#000000" cx="830.9114" cy="-162" rx="117.4777" ry="18"/>
<text text-anchor="middle" x="830.9114" y="-157.8" font-family="Times,serif" font-size="14.00" fill="#000000">controller.RocketLearnApp</text>
</g>
<!-- controller.RocketLearnApp&#45;&gt;java.awt.Graphics -->
<g id="edge13" class="edge">
<title>controller.RocketLearnApp&#45;&gt;java.awt.Graphics</title>
<path fill="none" stroke="#000000" d="M887.5061,-146.1783C965.4574,-125.1415 1110.5799,-88.6809 1236.9114,-72 1454.1103,-43.3209 2117.5634,-25.6538 2361.0603,-19.9908"/>
<polygon fill="#000000" stroke="#000000" points="2361.3739,-23.4846 2371.2903,-19.7542 2361.212,-16.4865 2361.3739,-23.4846"/>
</g>
<!-- controller.RocketLearnApp&#45;&gt;java.awt.Point -->
<g id="edge14" class="edge">
<title>controller.RocketLearnApp&#45;&gt;java.awt.Point</title>
<path fill="none" stroke="#000000" d="M912.7738,-148.9944C927.4385,-147.039 942.6036,-145.259 956.9114,-144 1075.4098,-133.5733 1917.1614,-153.8856 2026.9114,-108 2048.3754,-99.0261 2043.6113,-81.3562 2064.9114,-72 2080.8656,-64.9921 2575.1529,-34.2434 2766.9123,-22.5422"/>
<polygon fill="#000000" stroke="#000000" points="2767.1421,-26.0348 2776.9105,-21.9326 2766.7161,-19.0478 2767.1421,-26.0348"/>
</g>
<!-- controller.RocketLearnApp&#45;&gt;model.AbstractBody -->
<g id="edge15" class="edge">
<title>controller.RocketLearnApp&#45;&gt;model.AbstractBody</title>
<path fill="none" stroke="#000000" d="M912.4342,-149.0258C927.204,-147.0541 942.4928,-145.2603 956.9114,-144 1447.7442,-101.0964 1572.5328,-125.9123 2064.9114,-108 2184.3013,-103.6567 2321.6015,-98.0342 2412.184,-94.2378"/>
<polygon fill="#000000" stroke="#000000" points="2412.6008,-97.7235 2422.4452,-93.8072 2412.3072,-90.7296 2412.6008,-97.7235"/>
</g>
<!-- model.Vector -->
<g id="node8" class="node">
<title>model.Vector</title>
<ellipse fill="none" stroke="#000000" cx="1029.9114" cy="-162" rx="63.7242" ry="18"/>
<text text-anchor="middle" x="1029.9114" y="-157.8" font-family="Times,serif" font-size="14.00" fill="#000000">model.Vector</text>
</g>
<!-- model.Vector&#45;&gt;java.awt.Graphics -->
<g id="edge16" class="edge">
<title>model.Vector&#45;&gt;java.awt.Graphics</title>
<path fill="none" stroke="#000000" d="M1074.8714,-149.0685C1147.8301,-128.7009 1296.8587,-89.6541 1425.9114,-72 1605.4208,-47.4435 2146.1331,-27.8554 2361.736,-20.8143"/>
<polygon fill="#000000" stroke="#000000" points="2361.8734,-24.3118 2371.7543,-20.4886 2361.6458,-17.3155 2361.8734,-24.3118"/>
</g>
<!-- model.Vector&#45;&gt;java.awt.Point -->
<g id="edge17" class="edge">
<title>model.Vector&#45;&gt;java.awt.Point</title>
<path fill="none" stroke="#000000" d="M1075.5832,-149.2239C1084.5779,-147.1383 1093.9923,-145.2531 1102.9114,-144 1208.8349,-129.1186 1966.3037,-149.4458 2064.9114,-108 2086.3585,-98.9856 2081.628,-81.394 2102.9114,-72 2117.981,-65.3486 2582.2446,-34.7575 2767.0708,-22.8047"/>
<polygon fill="#000000" stroke="#000000" points="2767.4955,-26.2847 2777.249,-22.1471 2767.0441,-19.2992 2767.4955,-26.2847"/>
</g>
<!-- model.Vector&#45;&gt;model.AbstractBody -->
<g id="edge18" class="edge">
<title>model.Vector&#45;&gt;model.AbstractBody</title>
<path fill="none" stroke="#000000" d="M1075.191,-149.3045C1084.3036,-147.1837 1093.8622,-145.2648 1102.9114,-144 1543.3625,-82.4389 1658.5345,-125.777 2102.9114,-108 2208.7537,-103.7659 2329.977,-98.3612 2412.8013,-94.5839"/>
<polygon fill="#000000" stroke="#000000" points="2413.1306,-98.0726 2422.9605,-94.1199 2412.8112,-91.0799 2413.1306,-98.0726"/>
</g>
<!-- gui.BodyCanvas -->
<g id="node9" class="node">
<title>gui.BodyCanvas</title>
<ellipse fill="none" stroke="#000000" cx="1186.9114" cy="-162" rx="75.2866" ry="18"/>
<text text-anchor="middle" x="1186.9114" y="-157.8" font-family="Times,serif" font-size="14.00" fill="#000000">gui.BodyCanvas</text>
</g>
<!-- gui.BodyCanvas&#45;&gt;java.awt.Graphics -->
<g id="edge19" class="edge">
<title>gui.BodyCanvas&#45;&gt;java.awt.Graphics</title>
<path fill="none" stroke="#000000" d="M1239.891,-149.1768C1324.516,-129.2313 1495.6668,-91.0882 1642.9114,-72 1902.3567,-38.3665 2211.4884,-25.1068 2361.417,-20.3655"/>
<polygon fill="#000000" stroke="#000000" points="2361.6107,-23.8613 2371.4971,-20.052 2361.3931,-16.8646 2361.6107,-23.8613"/>
</g>
<!-- gui.BodyCanvas&#45;&gt;java.awt.Point -->
<g id="edge20" class="edge">
<title>gui.BodyCanvas&#45;&gt;java.awt.Point</title>
<path fill="none" stroke="#000000" d="M1240.0037,-149.2164C1250.2092,-147.1592 1260.8515,-145.2862 1270.9114,-144 1362.6952,-132.2647 2017.714,-144.1023 2102.9114,-108 2124.3321,-98.923 2119.6465,-81.4359 2140.9114,-72 2169.1653,-59.4628 2591.7078,-32.9507 2766.7926,-22.4337"/>
<polygon fill="#000000" stroke="#000000" points="2767.1835,-25.9166 2776.9562,-21.8244 2766.7646,-18.9291 2767.1835,-25.9166"/>
</g>
<!-- gui.BodyCanvas&#45;&gt;model.AbstractBody -->
<g id="edge21" class="edge">
<title>gui.BodyCanvas&#45;&gt;model.AbstractBody</title>
<path fill="none" stroke="#000000" d="M1240.0017,-149.201C1250.2074,-147.1452 1260.8503,-145.2767 1270.9114,-144 1654.8301,-95.281 1754.3042,-125.3772 2140.9114,-108 2233.2013,-103.8518 2338.3835,-98.7093 2413.1261,-94.9845"/>
<polygon fill="#000000" stroke="#000000" points="2413.6529,-98.4627 2423.4661,-94.4686 2413.304,-91.4714 2413.6529,-98.4627"/>
</g>
<!-- model.rockets.RocketFuelTank -->
<g id="node10" class="node">
<title>model.rockets.RocketFuelTank</title>
<ellipse fill="none" stroke="#000000" cx="1411.9114" cy="-162" rx="132.0072" ry="18"/>
<text text-anchor="middle" x="1411.9114" y="-157.8" font-family="Times,serif" font-size="14.00" fill="#000000">model.rockets.RocketFuelTank</text>
</g>
<!-- model.rockets.RocketFuelTank&#45;&gt;java.awt.Graphics -->
<g id="edge22" class="edge">
<title>model.rockets.RocketFuelTank&#45;&gt;java.awt.Graphics</title>
<path fill="none" stroke="#000000" d="M1474.4376,-146.0545C1556.1033,-125.8168 1703.778,-91.2325 1831.9114,-72 2019.5723,-43.8325 2241.56,-28.8976 2362.4465,-22.2964"/>
<polygon fill="#000000" stroke="#000000" points="2362.9585,-25.7739 2372.7554,-21.7403 2362.5814,-18.7841 2362.9585,-25.7739"/>
</g>
<!-- model.rockets.RocketFuelTank&#45;&gt;java.awt.Point -->
<g id="edge23" class="edge">
<title>model.rockets.RocketFuelTank&#45;&gt;java.awt.Point</title>
<path fill="none" stroke="#000000" d="M1505.1041,-149.2236C1521.0338,-147.2918 1537.4331,-145.4602 1552.9114,-144 1683.2441,-131.7046 2020.8376,-160.154 2140.9114,-108 2162.2499,-98.7316 2157.6673,-81.4826 2178.9114,-72 2205.426,-60.1649 2599.5686,-33.5915 2767.2751,-22.746"/>
<polygon fill="#000000" stroke="#000000" points="2767.5107,-26.2382 2777.2645,-22.1013 2767.0598,-19.2527 2767.5107,-26.2382"/>
</g>
<!-- model.rockets.RocketFuelTank&#45;&gt;model.AbstractBody -->
<g id="edge24" class="edge">
<title>model.rockets.RocketFuelTank&#45;&gt;model.AbstractBody</title>
<path fill="none" stroke="#000000" d="M1505.0981,-149.159C1521.0285,-147.2347 1537.4296,-145.4223 1552.9114,-144 1595.1983,-140.1152 2177.4949,-108.2164 2413.5566,-95.3501"/>
<polygon fill="#000000" stroke="#000000" points="2414.0575,-98.8281 2423.8522,-94.7891 2413.6765,-91.8385 2414.0575,-98.8281"/>
</g>
<!-- gui.GuiSimpleBody -->
<g id="node11" class="node">
<title>gui.GuiSimpleBody</title>
<ellipse fill="none" stroke="#000000" cx="1650.9114" cy="-162" rx="88.6269" ry="18"/>
<text text-anchor="middle" x="1650.9114" y="-157.8" font-family="Times,serif" font-size="14.00" fill="#000000">gui.GuiSimpleBody</text>
</g>
<!-- gui.GuiSimpleBody&#45;&gt;java.awt.Graphics -->
<g id="edge25" class="edge">
<title>gui.GuiSimpleBody&#45;&gt;java.awt.Graphics</title>
<path fill="none" stroke="#000000" d="M1698.0708,-146.7523C1761.803,-126.7072 1879.2779,-91.7319 1981.9114,-72 2114.0131,-46.6026 2269.4605,-31.5996 2364.311,-24.0863"/>
<polygon fill="#000000" stroke="#000000" points="2364.7372,-27.5638 2374.4338,-23.2947 2364.1914,-20.5851 2364.7372,-27.5638"/>
</g>
<!-- gui.GuiSimpleBody&#45;&gt;java.awt.Point -->
<g id="edge26" class="edge">
<title>gui.GuiSimpleBody&#45;&gt;java.awt.Point</title>
<path fill="none" stroke="#000000" d="M1714.2905,-149.4204C1725.781,-147.4076 1737.6804,-145.4979 1748.9114,-144 1843.9597,-131.3234 2091.3927,-147.1834 2178.9114,-108 2200.1449,-98.4935 2195.6906,-81.5348 2216.9114,-72 2241.6695,-60.8759 2606.9444,-34.3262 2767.3314,-23.1248"/>
<polygon fill="#000000" stroke="#000000" points="2767.8613,-26.5965 2777.5937,-22.4095 2767.3745,-19.6134 2767.8613,-26.5965"/>
</g>
<!-- gui.GuiSimpleBody&#45;&gt;model.AbstractBody -->
<g id="edge27" class="edge">
<title>gui.GuiSimpleBody&#45;&gt;model.AbstractBody</title>
<path fill="none" stroke="#000000" d="M1714.0117,-149.3461C1725.5852,-147.3287 1737.5852,-145.4365 1748.9114,-144 1813.3007,-135.8338 2224.3309,-108.6472 2415.0047,-96.2537"/>
<polygon fill="#000000" stroke="#000000" points="2415.2727,-99.7438 2425.0248,-95.6029 2414.8189,-92.7585 2415.2727,-99.7438"/>
</g>
<!-- model.Strut -->
<g id="node12" class="node">
<title>model.Strut</title>
<ellipse fill="none" stroke="#000000" cx="1813.9114" cy="-162" rx="56.2385" ry="18"/>
<text text-anchor="middle" x="1813.9114" y="-157.8" font-family="Times,serif" font-size="14.00" fill="#000000">model.Strut</text>
</g>
<!-- model.Strut&#45;&gt;java.awt.Graphics -->
<g id="edge28" class="edge">
<title>model.Strut&#45;&gt;java.awt.Graphics</title>
<path fill="none" stroke="#000000" d="M1852.8913,-148.9421C1910.9548,-129.8734 2023.8532,-94.2622 2121.9114,-72 2206.3192,-52.8369 2304.343,-37.6786 2371.4916,-28.3603"/>
<polygon fill="#000000" stroke="#000000" points="2372.1532,-31.8023 2381.5827,-26.9716 2371.1989,-24.8676 2372.1532,-31.8023"/>
</g>
<!-- model.Strut&#45;&gt;java.awt.Point -->
<g id="edge29" class="edge">
<title>model.Strut&#45;&gt;java.awt.Point</title>
<path fill="none" stroke="#000000" d="M1854.9341,-149.5447C1862.8368,-147.4572 1871.0895,-145.4892 1878.9114,-144 2027.3177,-115.746 2079.7339,-171.2853 2216.9114,-108 2238.0362,-98.2543 2233.7172,-81.5936 2254.9114,-72 2300.464,-51.3806 2618.5716,-30.7721 2766.5401,-22.175"/>
<polygon fill="#000000" stroke="#000000" points="2767.1123,-25.6479 2776.8937,-21.5769 2766.7085,-18.6595 2767.1123,-25.6479"/>
</g>
<!-- model.Strut&#45;&gt;model.AbstractBody -->
<g id="edge30" class="edge">
<title>model.Strut&#45;&gt;model.AbstractBody</title>
<path fill="none" stroke="#000000" d="M1854.5609,-149.5033C1862.5715,-147.3933 1870.9591,-145.4276 1878.9114,-144 1930.3502,-134.7657 2252.5893,-109.6058 2416.455,-97.1631"/>
<polygon fill="#000000" stroke="#000000" points="2416.8289,-100.6449 2426.5355,-96.3986 2416.2994,-93.665 2416.8289,-100.6449"/>
</g>
<!-- model.Vector2d -->
<g id="node13" class="node">
<title>model.Vector2d</title>
<ellipse fill="none" stroke="#000000" cx="1961.9114" cy="-162" rx="73.5377" ry="18"/>
<text text-anchor="middle" x="1961.9114" y="-157.8" font-family="Times,serif" font-size="14.00" fill="#000000">model.Vector2d</text>
</g>
<!-- model.Vector2d&#45;&gt;java.awt.Graphics -->
<g id="edge31" class="edge">
<title>model.Vector2d&#45;&gt;java.awt.Graphics</title>
<path fill="none" stroke="#000000" d="M2004.6757,-147.2999C2059.2119,-128.7627 2156.5676,-96.3717 2240.9114,-72 2289.5072,-57.9579 2344.9322,-43.8458 2386.7789,-33.5713"/>
<polygon fill="#000000" stroke="#000000" points="2387.689,-36.9519 2396.571,-31.1762 2386.0258,-30.1524 2387.689,-36.9519"/>
</g>
<!-- model.Vector2d&#45;&gt;java.awt.Point -->
<g id="edge32" class="edge">
<title>model.Vector2d&#45;&gt;java.awt.Point</title>
<path fill="none" stroke="#000000" d="M2016.0898,-149.7298C2025.356,-147.7394 2034.8988,-145.757 2043.9114,-144 2137.2865,-125.7964 2169.8235,-150.5478 2254.9114,-108 2275.7194,-97.5951 2271.7475,-81.6604 2292.9114,-72 2335.012,-52.7828 2626.5076,-31.8009 2766.7959,-22.6743"/>
<polygon fill="#000000" stroke="#000000" points="2767.2846,-26.1501 2777.0377,-22.0116 2766.8325,-19.1647 2767.2846,-26.1501"/>
</g>
<!-- model.Vector2d&#45;&gt;model.AbstractBody -->
<g id="edge33" class="edge">
<title>model.Vector2d&#45;&gt;model.AbstractBody</title>
<path fill="none" stroke="#000000" d="M2015.1319,-149.4981C2024.6815,-147.4891 2034.5671,-145.5606 2043.9114,-144 2172.7295,-122.4864 2322.9311,-106.8014 2417.7205,-98.0441"/>
<polygon fill="#000000" stroke="#000000" points="2418.2191,-101.5131 2427.8577,-97.1144 2417.5798,-94.5424 2418.2191,-101.5131"/>
</g>
<!-- model.BodyList -->
<g id="node14" class="node">
<title>model.BodyList</title>
<ellipse fill="none" stroke="#000000" cx="2126.9114" cy="-162" rx="73.5764" ry="18"/>
<text text-anchor="middle" x="2126.9114" y="-157.8" font-family="Times,serif" font-size="14.00" fill="#000000">model.BodyList</text>
</g>
<!-- model.BodyList&#45;&gt;java.awt.Graphics -->
<g id="edge34" class="edge">
<title>model.BodyList&#45;&gt;java.awt.Graphics</title>
<path fill="none" stroke="#000000" d="M2159.9676,-145.8568C2198.0355,-127.4178 2262.5772,-96.6193 2318.9114,-72 2346.3484,-60.0095 2377.3279,-47.3792 2402.4809,-37.3509"/>
<polygon fill="#000000" stroke="#000000" points="2403.8153,-40.5869 2411.8162,-33.6416 2401.2305,-34.0816 2403.8153,-40.5869"/>
</g>
<!-- model.BodyList&#45;&gt;java.awt.Point -->
<g id="edge35" class="edge">
<title>model.BodyList&#45;&gt;java.awt.Point</title>
<path fill="none" stroke="#000000" d="M2176.4898,-148.5749C2209.9719,-138.8567 2254.8358,-124.5556 2292.9114,-108 2323.1963,-94.8319 2326.4463,-82.0255 2357.9114,-72 2432.2002,-48.3301 2650.6622,-30.7377 2767.0012,-22.7515"/>
<polygon fill="#000000" stroke="#000000" points="2767.5096,-26.2251 2777.2491,-22.0547 2767.0347,-19.2412 2767.5096,-26.2251"/>
</g>
<!-- model.BodyList&#45;&gt;model.AbstractBody -->
<g id="edge36" class="edge">
<title>model.BodyList&#45;&gt;model.AbstractBody</title>
<path fill="none" stroke="#000000" d="M2181.7673,-149.8068C2191.1446,-147.8075 2200.7988,-145.8022 2209.9114,-144 2285.1434,-129.1215 2371.2826,-113.8972 2432.2609,-103.4228"/>
<polygon fill="#000000" stroke="#000000" points="2432.9398,-106.8576 2442.2048,-101.7185 2431.7572,-99.9582 2432.9398,-106.8576"/>
</g>
<!-- model.rockets.Rocket -->
<g id="node15" class="node">
<title>model.rockets.Rocket</title>
<ellipse fill="none" stroke="#000000" cx="2313.9114" cy="-162" rx="95.4869" ry="18"/>
<text text-anchor="middle" x="2313.9114" y="-157.8" font-family="Times,serif" font-size="14.00" fill="#000000">model.rockets.Rocket</text>
</g>
<!-- model.rockets.Rocket&#45;&gt;java.awt.Graphics -->
<g id="edge37" class="edge">
<title>model.rockets.Rocket&#45;&gt;java.awt.Graphics</title>
<path fill="none" stroke="#000000" d="M2315.1109,-143.741C2317.2982,-123.9652 2323.4741,-92.5044 2340.9114,-72 2354.4509,-56.0791 2373.7833,-44.4517 2392.5301,-36.1571"/>
<polygon fill="#000000" stroke="#000000" points="2394.0652,-39.3093 2401.9511,-32.2337 2391.374,-32.8472 2394.0652,-39.3093"/>
</g>
<!-- model.rockets.Rocket&#45;&gt;java.awt.Point -->
<g id="edge38" class="edge">
<title>model.rockets.Rocket&#45;&gt;java.awt.Point</title>
<path fill="none" stroke="#000000" d="M2327.5965,-143.9431C2344.7559,-122.7805 2376.2804,-88.5096 2411.9114,-72 2473.2504,-43.5787 2660.3585,-28.4501 2766.4395,-21.957"/>
<polygon fill="#000000" stroke="#000000" points="2766.6736,-25.4493 2776.4455,-21.3554 2766.2535,-18.4619 2766.6736,-25.4493"/>
</g>
<!-- model.rockets.Rocket&#45;&gt;model.AbstractBody -->
<g id="edge39" class="edge">
<title>model.rockets.Rocket&#45;&gt;model.AbstractBody</title>
<path fill="none" stroke="#000000" d="M2357.8541,-146.0209C2387.5899,-135.2078 2427.0426,-120.8614 2458.5784,-109.3938"/>
<polygon fill="#000000" stroke="#000000" points="2459.8898,-112.6412 2468.0917,-105.9345 2457.4976,-106.0627 2459.8898,-112.6412"/>
</g>
<!-- model.Planet -->
<g id="node16" class="node">
<title>model.Planet</title>
<ellipse fill="none" stroke="#000000" cx="2488.9114" cy="-162" rx="61.9563" ry="18"/>
<text text-anchor="middle" x="2488.9114" y="-157.8" font-family="Times,serif" font-size="14.00" fill="#000000">model.Planet</text>
</g>
<!-- model.Planet&#45;&gt;java.awt.Graphics -->
<g id="edge40" class="edge">
<title>model.Planet&#45;&gt;java.awt.Graphics</title>
<path fill="none" stroke="#000000" d="M2454.0605,-146.9675C2438.1454,-138.1183 2420.8769,-125.2379 2411.9114,-108 2400.896,-86.8206 2413.7933,-61.9733 2427.7967,-43.7585"/>
<polygon fill="#000000" stroke="#000000" points="2430.6071,-45.8507 2434.2266,-35.8933 2425.1876,-41.4202 2430.6071,-45.8507"/>
</g>
<!-- model.Planet&#45;&gt;java.awt.Point -->
<g id="edge41" class="edge">
<title>model.Planet&#45;&gt;java.awt.Point</title>
<path fill="none" stroke="#000000" d="M2527.0567,-147.8125C2555.508,-137.1284 2595.2728,-121.9803 2629.9114,-108 2688.1685,-84.4872 2754.7716,-55.9351 2797.532,-37.3859"/>
<polygon fill="#000000" stroke="#000000" points="2799.0333,-40.5498 2806.8109,-33.3555 2796.2444,-34.1294 2799.0333,-40.5498"/>
</g>
<!-- model.Planet&#45;&gt;model.AbstractBody -->
<g id="edge42" class="edge">
<title>model.Planet&#45;&gt;model.AbstractBody</title>
<path fill="none" stroke="#000000" d="M2494.7153,-143.8314C2497.2022,-136.0463 2500.1645,-126.7729 2502.924,-118.1347"/>
<polygon fill="#000000" stroke="#000000" points="2506.3204,-119.0041 2506.0294,-108.4133 2499.6524,-116.874 2506.3204,-119.0041"/>
</g>
<!-- gui.GuiTrajectory -->
<g id="node17" class="node">
<title>gui.GuiTrajectory</title>
<ellipse fill="none" stroke="#000000" cx="2648.9114" cy="-162" rx="80.4766" ry="18"/>
<text text-anchor="middle" x="2648.9114" y="-157.8" font-family="Times,serif" font-size="14.00" fill="#000000">gui.GuiTrajectory</text>
</g>
<!-- gui.GuiTrajectory&#45;&gt;java.awt.Graphics -->
<g id="edge43" class="edge">
<title>gui.GuiTrajectory&#45;&gt;java.awt.Graphics</title>
<path fill="none" stroke="#000000" d="M2650.161,-143.6947C2650.4982,-123.5798 2647.8284,-91.5377 2629.9114,-72 2615.1296,-55.881 2566.1596,-41.702 2523.3174,-31.9226"/>
<polygon fill="#000000" stroke="#000000" points="2523.9585,-28.4797 2513.4364,-29.7185 2522.4345,-35.3118 2523.9585,-28.4797"/>
</g>
<!-- gui.GuiTrajectory&#45;&gt;java.awt.Point -->
<g id="edge44" class="edge">
<title>gui.GuiTrajectory&#45;&gt;java.awt.Point</title>
<path fill="none" stroke="#000000" d="M2707.1763,-149.3915C2717.3899,-147.4174 2727.9388,-145.5283 2737.9114,-144 2813.6679,-132.3905 3029.6245,-164.9515 3080.9114,-108 3132.2641,-50.9754 3004.9315,-29.9195 2917.0557,-22.262"/>
<polygon fill="#000000" stroke="#000000" points="2917.339,-18.7736 2907.0839,-21.4351 2916.7604,-25.7496 2917.339,-18.7736"/>
</g>
<!-- gui.GuiTrajectory&#45;&gt;model.AbstractBody -->
<g id="edge45" class="edge">
<title>gui.GuiTrajectory&#45;&gt;model.AbstractBody</title>
<path fill="none" stroke="#000000" d="M2617.1365,-145.3008C2598.0804,-135.2859 2573.6408,-122.4417 2553.1121,-111.6529"/>
<polygon fill="#000000" stroke="#000000" points="2554.4689,-108.4121 2543.9886,-106.8581 2551.2123,-114.6085 2554.4689,-108.4121"/>
</g>
<!-- model.Simulation -->
<g id="node18" class="node">
<title>model.Simulation</title>
<ellipse fill="none" stroke="#000000" cx="2826.9114" cy="-162" rx="79.9549" ry="18"/>
<text text-anchor="middle" x="2826.9114" y="-157.8" font-family="Times,serif" font-size="14.00" fill="#000000">model.Simulation</text>
</g>
<!-- model.Simulation&#45;&gt;java.awt.Graphics -->
<g id="edge46" class="edge">
<title>model.Simulation&#45;&gt;java.awt.Graphics</title>
<path fill="none" stroke="#000000" d="M2789.523,-145.9638C2766.5135,-135.76 2736.6085,-121.8915 2710.9114,-108 2684.222,-93.572 2680.7489,-84.0652 2652.9114,-72 2611.6738,-54.127 2563.0576,-40.874 2523.9682,-31.9709"/>
<polygon fill="#000000" stroke="#000000" points="2524.2512,-28.4482 2513.7292,-29.6882 2522.7279,-35.2804 2524.2512,-28.4482"/>
</g>
<!-- model.Simulation&#45;&gt;java.awt.Point -->
<g id="edge47" class="edge">
<title>model.Simulation&#45;&gt;java.awt.Point</title>
<path fill="none" stroke="#000000" d="M2886.2357,-149.7953C2896.1374,-147.8176 2906.309,-145.8222 2915.9114,-144 2960.9231,-135.4583 3089.4794,-143.1108 3118.9114,-108 3129.19,-95.7382 3129.0853,-84.3488 3118.9114,-72 3093.7683,-41.482 2990.2146,-27.9806 2917.1213,-22.1696"/>
<polygon fill="#000000" stroke="#000000" points="2917.2581,-18.67 2907.021,-21.3998 2916.726,-25.6498 2917.2581,-18.67"/>
</g>
<!-- model.Simulation&#45;&gt;model.AbstractBody -->
<g id="edge48" class="edge">
<title>model.Simulation&#45;&gt;model.AbstractBody</title>
<path fill="none" stroke="#000000" d="M2770.5958,-149.1278C2717.7593,-137.0509 2638.5766,-118.952 2581.7432,-105.9615"/>
<polygon fill="#000000" stroke="#000000" points="2582.2869,-102.4956 2571.7584,-103.6793 2580.727,-109.3196 2582.2869,-102.4956"/>
</g>
<!-- gui.GuiRocketExtended -->
<g id="node19" class="node">
<title>gui.GuiRocketExtended</title>
<ellipse fill="none" stroke="#000000" cx="3028.9114" cy="-162" rx="104.1991" ry="18"/>
<text text-anchor="middle" x="3028.9114" y="-157.8" font-family="Times,serif" font-size="14.00" fill="#000000">gui.GuiRocketExtended</text>
</g>
<!-- gui.GuiRocketExtended&#45;&gt;java.awt.Graphics -->
<g id="edge49" class="edge">
<title>gui.GuiRocketExtended&#45;&gt;java.awt.Graphics</title>
<path fill="none" stroke="#000000" d="M2954.7256,-149.2891C2878.3018,-135.9395 2767.743,-115.8199 2748.9114,-108 2722.6131,-97.0794 2722.0584,-83.2783 2695.9114,-72 2644.1208,-49.6605 2582.0073,-36.0843 2533.4113,-28.1319"/>
<polygon fill="#000000" stroke="#000000" points="2533.6803,-24.6309 2523.2551,-26.5192 2532.5825,-31.5443 2533.6803,-24.6309"/>
</g>
<!-- gui.GuiRocketExtended&#45;&gt;java.awt.Point -->
<g id="edge50" class="edge">
<title>gui.GuiRocketExtended&#45;&gt;java.awt.Point</title>
<path fill="none" stroke="#000000" d="M3086.3664,-146.8724C3105.8596,-138.6962 3125.5598,-126.3673 3136.9114,-108 3145.3231,-94.3896 3147.1561,-84.2901 3136.9114,-72 3109.5529,-39.1789 2996.0141,-26.2464 2918.0474,-21.1912"/>
<polygon fill="#000000" stroke="#000000" points="2917.9686,-17.6797 2907.7719,-20.5568 2917.5372,-24.6664 2917.9686,-17.6797"/>
</g>
<!-- gui.GuiRocketExtended&#45;&gt;model.AbstractBody -->
<g id="edge51" class="edge">
<title>gui.GuiRocketExtended&#45;&gt;model.AbstractBody</title>
<path fill="none" stroke="#000000" d="M2952.9719,-149.6355C2940.5933,-147.6971 2927.9014,-145.756 2915.9114,-144 2806.8593,-128.0289 2680.9575,-111.5028 2599.0765,-101.0091"/>
<polygon fill="#000000" stroke="#000000" points="2599.4286,-97.5257 2589.0652,-99.728 2598.54,-104.4691 2599.4286,-97.5257"/>
</g>
<!-- model.forces.Forces -->
<g id="node20" class="node">
<title>model.forces.Forces</title>
<ellipse fill="none" stroke="#000000" cx="3239.9114" cy="-162" rx="89.1646" ry="18"/>
<text text-anchor="middle" x="3239.9114" y="-157.8" font-family="Times,serif" font-size="14.00" fill="#000000">model.forces.Forces</text>
</g>
<!-- model.forces.Forces&#45;&gt;java.awt.Graphics -->
<g id="edge52" class="edge">
<title>model.forces.Forces&#45;&gt;java.awt.Graphics</title>
<path fill="none" stroke="#000000" d="M3175.72,-149.4446C3164.4774,-147.4646 3152.8721,-145.5598 3141.9114,-144 2984.9062,-121.6574 2935.1899,-164.2434 2786.9114,-108 2761.3084,-98.2885 2762.0723,-82.8055 2736.9114,-72 2673.8344,-44.9112 2597.124,-31.36 2539.1841,-24.61"/>
<polygon fill="#000000" stroke="#000000" points="2539.2848,-21.0995 2528.9577,-23.4663 2538.5067,-28.0562 2539.2848,-21.0995"/>
</g>
<!-- model.forces.Forces&#45;&gt;java.awt.Point -->
<g id="edge53" class="edge">
<title>model.forces.Forces&#45;&gt;java.awt.Point</title>
<path fill="none" stroke="#000000" d="M3228.2227,-143.831C3213.7094,-122.8933 3186.918,-89.1708 3154.9114,-72 3114.4529,-50.2949 2994.1907,-33.9785 2915.0657,-25.2243"/>
<polygon fill="#000000" stroke="#000000" points="2914.9881,-21.6952 2904.6677,-24.0911 2914.2296,-28.654 2914.9881,-21.6952"/>
</g>
<!-- model.forces.Forces&#45;&gt;model.AbstractBody -->
<g id="edge54" class="edge">
<title>model.forces.Forces&#45;&gt;model.AbstractBody</title>
<path fill="none" stroke="#000000" d="M3176.0034,-149.3467C3164.6765,-147.3658 3152.9696,-145.486 3141.9114,-144 3090.3264,-137.0681 2769.405,-110.7697 2606.5276,-97.6041"/>
<polygon fill="#000000" stroke="#000000" points="2606.7582,-94.1115 2596.5088,-96.7948 2606.1945,-101.0887 2606.7582,-94.1115"/>
</g>
<!-- model.SimpleBody -->
<g id="node21" class="node">
<title>model.SimpleBody</title>
<ellipse fill="none" stroke="#000000" cx="3432.9114" cy="-162" rx="85.7578" ry="18"/>
<text text-anchor="middle" x="3432.9114" y="-157.8" font-family="Times,serif" font-size="14.00" fill="#000000">model.SimpleBody</text>
</g>
<!-- model.SimpleBody&#45;&gt;java.awt.Graphics -->
<g id="edge55" class="edge">
<title>model.SimpleBody&#45;&gt;java.awt.Graphics</title>
<path fill="none" stroke="#000000" d="M3371.7559,-149.3214C3360.5354,-147.3064 3348.899,-145.4215 3337.9114,-144 3224.5756,-129.3375 2932.1907,-147.3847 2824.9114,-108 2799.5434,-98.6868 2800.8082,-82.5083 2775.9114,-72 2733.5268,-54.1105 2615.8638,-37.3204 2534.6508,-27.3504"/>
<polygon fill="#000000" stroke="#000000" points="2534.7885,-23.8414 2524.4391,-26.109 2533.9437,-30.7903 2534.7885,-23.8414"/>
</g>
<!-- model.SimpleBody&#45;&gt;java.awt.Point -->
<g id="edge56" class="edge">
<title>model.SimpleBody&#45;&gt;java.awt.Point</title>
<path fill="none" stroke="#000000" d="M3396.1057,-145.5539C3349.4824,-125.3557 3266.2424,-91.3954 3191.9114,-72 3097.9274,-47.4764 2986.6514,-32.6558 2915.2171,-24.9017"/>
<polygon fill="#000000" stroke="#000000" points="2915.2885,-21.3895 2904.9735,-23.8086 2914.5457,-28.35 2915.2885,-21.3895"/>
</g>
<!-- model.SimpleBody&#45;&gt;model.AbstractBody -->
<g id="edge57" class="edge">
<title>model.SimpleBody&#45;&gt;model.AbstractBody</title>
<path fill="none" stroke="#000000" d="M3371.7615,-149.2776C3360.5405,-147.2671 3348.9024,-145.395 3337.9114,-144 3094.4536,-113.0995 3031.7994,-124.0145 2786.9114,-108 2727.7061,-104.1283 2661.3311,-99.7838 2608.625,-96.3331"/>
<polygon fill="#000000" stroke="#000000" points="2608.8177,-92.8384 2598.6104,-95.6775 2608.3603,-99.8234 2608.8177,-92.8384"/>
</g>
<!-- gui.MainWindow -->
<g id="node22" class="node">
<title>gui.MainWindow</title>
<ellipse fill="none" stroke="#000000" cx="3615.9114" cy="-162" rx="79.3598" ry="18"/>
<text text-anchor="middle" x="3615.9114" y="-157.8" font-family="Times,serif" font-size="14.00" fill="#000000">gui.MainWindow</text>
</g>
<!-- gui.MainWindow&#45;&gt;java.awt.Graphics -->
<g id="edge58" class="edge">
<title>gui.MainWindow&#45;&gt;java.awt.Graphics</title>
<path fill="none" stroke="#000000" d="M3559.7843,-149.233C3549.2403,-147.201 3538.2741,-145.3329 3527.9114,-144 3381.1265,-125.1198 3001.9943,-158.5789 2862.9114,-108 2837.8505,-98.8863 2839.5186,-82.2761 2814.9114,-72 2766.105,-51.6183 2627.9253,-34.9607 2536.8247,-25.7693"/>
<polygon fill="#000000" stroke="#000000" points="2537.0832,-22.2778 2526.785,-24.7673 2536.3879,-29.2432 2537.0832,-22.2778"/>
</g>
<!-- gui.MainWindow&#45;&gt;java.awt.Point -->
<g id="edge59" class="edge">
<title>gui.MainWindow&#45;&gt;java.awt.Point</title>
<path fill="none" stroke="#000000" d="M3567.0868,-147.6868C3498.8697,-128.1416 3370.9164,-93.1238 3259.9114,-72 3140.0162,-49.1844 2998.9125,-33.1762 2915.1318,-24.7901"/>
<polygon fill="#000000" stroke="#000000" points="2915.2501,-21.2847 2904.9535,-23.7806 2914.5592,-28.2506 2915.2501,-21.2847"/>
</g>
<!-- gui.MainWindow&#45;&gt;model.AbstractBody -->
<g id="edge60" class="edge">
<title>gui.MainWindow&#45;&gt;model.AbstractBody</title>
<path fill="none" stroke="#000000" d="M3559.7874,-149.2083C3549.2432,-147.1787 3538.2761,-145.3178 3527.9114,-144 3217.556,-104.5408 3137.3041,-124.981 2824.9114,-108 2752.8342,-104.082 2671.4371,-99.3929 2609.7189,-95.7829"/>
<polygon fill="#000000" stroke="#000000" points="2609.7869,-92.281 2599.5993,-95.1904 2609.3776,-99.269 2609.7869,-92.281"/>
</g>
<!-- model.rockets.RocketEngine -->
<g id="node23" class="node">
<title>model.rockets.RocketEngine</title>
<ellipse fill="none" stroke="#000000" cx="3835.9114" cy="-162" rx="122.6968" ry="18"/>
<text text-anchor="middle" x="3835.9114" y="-157.8" font-family="Times,serif" font-size="14.00" fill="#000000">model.rockets.RocketEngine</text>
</g>
<!-- model.rockets.RocketEngine&#45;&gt;java.awt.Graphics -->
<g id="edge61" class="edge">
<title>model.rockets.RocketEngine&#45;&gt;java.awt.Graphics</title>
<path fill="none" stroke="#000000" d="M3749.7688,-149.1071C3734.519,-147.1523 3718.7689,-145.3433 3703.9114,-144 3526.0133,-127.9162 3069.061,-168.2673 2900.9114,-108 2875.8085,-99.0027 2877.589,-82.1058 2852.9114,-72 2797.6834,-49.3835 2639.1134,-33.0005 2538.7134,-24.5397"/>
<polygon fill="#000000" stroke="#000000" points="2538.8375,-21.038 2528.5815,-23.6961 2538.2566,-28.0138 2538.8375,-21.038"/>
</g>
<!-- model.rockets.RocketEngine&#45;&gt;java.awt.Point -->
<g id="edge62" class="edge">
<title>model.rockets.RocketEngine&#45;&gt;java.awt.Point</title>
<path fill="none" stroke="#000000" d="M3765.8101,-147.1382C3672.0899,-127.6828 3500.6209,-93.5321 3352.9114,-72 3198.1663,-49.4423 3015.7451,-32.4577 2916.1078,-23.9907"/>
<polygon fill="#000000" stroke="#000000" points="2916.1046,-20.4781 2905.8455,-23.124 2915.5154,-27.4533 2916.1046,-20.4781"/>
</g>
<!-- model.rockets.RocketEngine&#45;&gt;model.AbstractBody -->
<g id="edge63" class="edge">
<title>model.rockets.RocketEngine&#45;&gt;model.AbstractBody</title>
<path fill="none" stroke="#000000" d="M3750.1256,-149.1273C3734.7653,-147.1578 3718.8854,-145.3385 3703.9114,-144 3331.2772,-110.6899 3236.6182,-125.5804 2862.9114,-108 2777.6598,-103.9895 2680.7851,-98.988 2610.4379,-95.2757"/>
<polygon fill="#000000" stroke="#000000" points="2610.4266,-91.7703 2600.2558,-94.7376 2610.0571,-98.7606 2610.4266,-91.7703"/>
</g>
<!-- gui.GuiBody -->
<g id="node24" class="node">
<title>gui.GuiBody</title>
<ellipse fill="none" stroke="#000000" cx="4037.9114" cy="-162" rx="61.4016" ry="18"/>
<text text-anchor="middle" x="4037.9114" y="-157.8" font-family="Times,serif" font-size="14.00" fill="#000000">gui.GuiBody</text>
</g>
<!-- gui.GuiBody&#45;&gt;java.awt.Graphics -->
<g id="edge64" class="edge">
<title>gui.GuiBody&#45;&gt;java.awt.Graphics</title>
<path fill="none" stroke="#000000" d="M3994.5184,-149.2885C3985.7781,-147.169 3976.6051,-145.2547 3967.9114,-144 3854.6813,-127.6586 3046.7948,-146.0696 2938.9114,-108 2913.7645,-99.1262 2915.6466,-81.9641 2890.9114,-72 2829.0926,-47.0973 2649.2748,-31.1385 2539.898,-23.4439"/>
<polygon fill="#000000" stroke="#000000" points="2540.0844,-19.9485 2529.866,-22.7474 2539.5995,-26.9317 2540.0844,-19.9485"/>
</g>
<!-- gui.GuiBody&#45;&gt;java.awt.Point -->
<g id="edge65" class="edge">
<title>gui.GuiBody&#45;&gt;java.awt.Point</title>
<path fill="none" stroke="#000000" d="M3992.8884,-149.6673C3984.6167,-147.6171 3976.0311,-145.6308 3967.9114,-144 3577.0555,-65.4977 3099.3429,-32.3217 2917.2658,-21.9058"/>
<polygon fill="#000000" stroke="#000000" points="2917.4405,-18.4101 2907.2586,-21.3393 2917.0448,-25.399 2917.4405,-18.4101"/>
</g>
<!-- gui.GuiBody&#45;&gt;model.AbstractBody -->
<g id="edge66" class="edge">
<title>gui.GuiBody&#45;&gt;model.AbstractBody</title>
<path fill="none" stroke="#000000" d="M3994.5197,-149.2799C3985.7793,-147.1611 3976.6058,-145.2493 3967.9114,-144 3733.0771,-110.2578 3137.9679,-117.4833 2900.9114,-108 2802.3198,-104.0559 2689.7103,-98.7585 2611.1106,-94.9328"/>
<polygon fill="#000000" stroke="#000000" points="2610.8925,-91.4181 2600.7338,-94.4267 2610.5514,-98.4098 2610.8925,-91.4181"/>
</g>
<!-- gui.GuiRocket -->
<g id="node25" class="node">
<title>gui.GuiRocket</title>
<ellipse fill="none" stroke="#000000" cx="4184.9114" cy="-162" rx="67.7584" ry="18"/>
<text text-anchor="middle" x="4184.9114" y="-157.8" font-family="Times,serif" font-size="14.00" fill="#000000">gui.GuiRocket</text>
</g>
<!-- gui.GuiRocket&#45;&gt;java.awt.Graphics -->
<g id="edge67" class="edge">
<title>gui.GuiRocket&#45;&gt;java.awt.Graphics</title>
<path fill="none" stroke="#000000" d="M4136.7115,-149.1947C4127.2261,-147.1117 4117.3032,-145.2348 4107.9114,-144 3983.254,-127.6099 3095.5421,-149.652 2976.9114,-108 2951.7506,-99.1659 2953.6944,-81.8445 2928.9114,-72 2860.424,-44.7949 2658.9304,-29.4072 2540.8757,-22.4925"/>
<polygon fill="#000000" stroke="#000000" points="2540.9564,-18.9914 2530.7713,-21.9094 2540.553,-25.9798 2540.9564,-18.9914"/>
</g>
<!-- gui.GuiRocket&#45;&gt;java.awt.Point -->
<g id="edge68" class="edge">
<title>gui.GuiRocket&#45;&gt;java.awt.Point</title>
<path fill="none" stroke="#000000" d="M4134.9115,-149.7326C4125.9469,-147.6986 4116.6713,-145.701 4107.9114,-144 3903.0478,-104.2195 3851.3269,-95.0315 3643.9114,-72 3378.022,-42.4755 3060.6203,-26.8882 2917.955,-20.9208"/>
<polygon fill="#000000" stroke="#000000" points="2917.7125,-17.4078 2907.5762,-20.4908 2917.4227,-24.4018 2917.7125,-17.4078"/>
</g>
<!-- gui.GuiRocket&#45;&gt;model.AbstractBody -->
<g id="edge69" class="edge">
<title>gui.GuiRocket&#45;&gt;model.AbstractBody</title>
<path fill="none" stroke="#000000" d="M4136.7125,-149.1869C4127.227,-147.1046 4117.3039,-145.23 4107.9114,-144 3850.2108,-110.2528 3198.6397,-117.4733 2938.9114,-108 2826.5754,-103.9027 2697.6525,-98.3508 2611.1186,-94.501"/>
<polygon fill="#000000" stroke="#000000" points="2611.1889,-91.0008 2601.043,-94.0519 2610.8772,-97.9938 2611.1889,-91.0008"/>
</g>
<!-- controller.MouseWheelEvent -->
<g id="node26" class="node">
<title>controller.MouseWheelEvent</title>
<ellipse fill="none" stroke="#000000" cx="4395.9114" cy="-162" rx="125.002" ry="18"/>
<text text-anchor="middle" x="4395.9114" y="-157.8" font-family="Times,serif" font-size="14.00" fill="#000000">controller.MouseWheelEvent</text>
</g>
<!-- controller.MouseWheelEvent&#45;&gt;java.awt.Graphics -->
<g id="edge70" class="edge">
<title>controller.MouseWheelEvent&#45;&gt;java.awt.Graphics</title>
<path fill="none" stroke="#000000" d="M4309.196,-149.0036C4293.4901,-147.0342 4277.2355,-145.247 4261.9114,-144 4123.7548,-132.7576 3145.7653,-153.7264 3014.9114,-108 2989.7375,-99.2031 2991.7349,-81.7421 2966.9114,-72 2891.645,-42.4611 2667.8856,-27.7725 2541.4712,-21.6489"/>
<polygon fill="#000000" stroke="#000000" points="2541.5751,-18.15 2531.4199,-21.1701 2541.242,-25.1421 2541.5751,-18.15"/>
</g>
<!-- controller.MouseWheelEvent&#45;&gt;java.awt.Point -->
<g id="edge71" class="edge">
<title>controller.MouseWheelEvent&#45;&gt;java.awt.Point</title>
<path fill="none" stroke="#000000" d="M4317.2708,-147.9928C4201.9733,-127.9869 3980.1007,-91.4993 3789.9114,-72 3466.9711,-38.8903 3079.9052,-24.7657 2918.4652,-20.0101"/>
<polygon fill="#000000" stroke="#000000" points="2918.2583,-16.5027 2908.1608,-19.7103 2918.0547,-23.4997 2918.2583,-16.5027"/>
</g>
<!-- controller.MouseWheelEvent&#45;&gt;model.AbstractBody -->
<g id="edge72" class="edge">
<title>controller.MouseWheelEvent&#45;&gt;model.AbstractBody</title>
<path fill="none" stroke="#000000" d="M4309.1968,-148.9927C4293.4909,-147.0245 4277.236,-145.2404 4261.9114,-144 3692.4388,-97.9042 3547.9289,-127.0501 2976.9114,-108 2850.8984,-103.796 2705.7136,-98.0282 2611.5636,-94.1656"/>
<polygon fill="#000000" stroke="#000000" points="2611.6139,-90.6648 2601.4786,-93.7511 2611.3264,-97.6589 2611.6139,-90.6648"/>
</g>
<!-- controller.KeyActionsGui -->
<g id="node27" class="node">
<title>controller.KeyActionsGui</title>
<ellipse fill="none" stroke="#000000" cx="4650.9114" cy="-162" rx="111.6964" ry="18"/>
<text text-anchor="middle" x="4650.9114" y="-157.8" font-family="Times,serif" font-size="14.00" fill="#000000">controller.KeyActionsGui</text>
</g>
<!-- controller.KeyActionsGui&#45;&gt;java.awt.Graphics -->
<g id="edge73" class="edge">
<title>controller.KeyActionsGui&#45;&gt;java.awt.Graphics</title>
<path fill="none" stroke="#000000" d="M4571.9562,-149.2384C4557.9763,-147.2693 4543.5361,-145.4214 4529.9114,-144 4265.5311,-116.4175 4198.241,-124.0619 3932.9114,-108 3404.6109,-76.019 2770.3197,-37.3984 2540.4939,-23.3976"/>
<polygon fill="#000000" stroke="#000000" points="2540.3799,-19.8842 2530.1855,-22.7696 2539.9542,-26.8713 2540.3799,-19.8842"/>
</g>
<!-- controller.KeyActionsGui&#45;&gt;java.awt.Point -->
<g id="edge74" class="edge">
<title>controller.KeyActionsGui&#45;&gt;java.awt.Point</title>
<path fill="none" stroke="#000000" d="M4569.5954,-149.5973C4556.3405,-147.6637 4542.7501,-145.734 4529.9114,-144 4266.8093,-108.4645 4201.4429,-94.5528 3936.9114,-72 3555.073,-39.4461 3096.5285,-24.6962 2918.1275,-19.8818"/>
<polygon fill="#000000" stroke="#000000" points="2918.1471,-16.3811 2908.0571,-19.6126 2917.96,-23.3786 2918.1471,-16.3811"/>
</g>
<!-- controller.KeyActionsGui&#45;&gt;model.AbstractBody -->
<g id="edge75" class="edge">
<title>controller.KeyActionsGui&#45;&gt;model.AbstractBody</title>
<path fill="none" stroke="#000000" d="M4573.2954,-149.0004C4558.9087,-147.0047 4543.9829,-145.2091 4529.9114,-144 3858.8609,-86.3378 3688.1365,-128.0438 3014.9114,-108 2874.9463,-103.8329 2713.1168,-97.8297 2611.638,-93.9219"/>
<polygon fill="#000000" stroke="#000000" points="2611.527,-90.4152 2601.3995,-93.5269 2611.2571,-97.4099 2611.527,-90.4152"/>
</g>
<!-- gui.GuiPlanet -->
<g id="node28" class="node">
<title>gui.GuiPlanet</title>
<ellipse fill="none" stroke="#000000" cx="4844.9114" cy="-162" rx="64.3249" ry="18"/>
<text text-anchor="middle" x="4844.9114" y="-157.8" font-family="Times,serif" font-size="14.00" fill="#000000">gui.GuiPlanet</text>
</g>
<!-- gui.GuiPlanet&#45;&gt;java.awt.Graphics -->
<g id="edge76" class="edge">
<title>gui.GuiPlanet&#45;&gt;java.awt.Graphics</title>
<path fill="none" stroke="#000000" d="M4798.8197,-149.3278C4789.9461,-147.2603 4780.6836,-145.3551 4771.9114,-144 3889.9691,-7.762 3658.2589,-79.3905 2766.9114,-36 2690.3375,-32.2724 2603.3395,-27.2405 2540.203,-23.4447"/>
<polygon fill="#000000" stroke="#000000" points="2540.0789,-19.931 2529.8864,-22.8227 2539.6576,-26.9183 2540.0789,-19.931"/>
</g>
<!-- gui.GuiPlanet&#45;&gt;java.awt.Point -->
<g id="edge77" class="edge">
<title>gui.GuiPlanet&#45;&gt;java.awt.Point</title>
<path fill="none" stroke="#000000" d="M4820.6739,-145.1535C4787.9697,-123.5011 4727.0856,-86.9239 4668.9114,-72 4497.919,-28.1339 3243.7994,-19.727 2918.7046,-18.2784"/>
<polygon fill="#000000" stroke="#000000" points="2918.4606,-14.7774 2908.4454,-18.2336 2918.43,-21.7773 2918.4606,-14.7774"/>
</g>
<!-- gui.GuiPlanet&#45;&gt;model.AbstractBody -->
<g id="edge78" class="edge">
<title>gui.GuiPlanet&#45;&gt;model.AbstractBody</title>
<path fill="none" stroke="#000000" d="M4799.2529,-149.1274C4790.257,-147.0502 4780.8388,-145.1928 4771.9114,-144 4556.6543,-115.24 3024.2319,-95.8454 2613.1663,-91.1203"/>
<polygon fill="#000000" stroke="#000000" points="2613.1207,-87.6196 2603.0812,-91.0047 2613.0404,-94.6191 2613.1207,-87.6196"/>
</g>
</g>
</svg>
